<svg width="31" height="31" viewBox="0 0 31 31" fill="none" xmlns="http://www.w3.org/2000/svg">
                        <path d="M16.9875 8H8.9875C8.6625 8 8.35 8.0125 8.05 8.05C4.6875 8.3375 3 10.325 3 13.9875V18.9875C3 23.9875 5 24.975 8.9875 24.975H9.4875C9.7625 24.975 10.125 25.1625 10.2875 25.375L11.7875 27.375C12.45 28.2625 13.525 28.2625 14.1875 27.375L15.6875 25.375C15.875 25.125 16.175 24.975 16.4875 24.975H16.9875C20.65 24.975 22.6375 23.3 22.925 19.925C22.9625 19.625 22.975 19.3125 22.975 18.9875V13.9875C22.975 10 20.975 8 16.9875 8ZM8.625 18C7.925 18 7.375 17.4375 7.375 16.75C7.375 16.0625 7.9375 15.5 8.625 15.5C9.3125 15.5 9.875 16.0625 9.875 16.75C9.875 17.4375 9.3125 18 8.625 18ZM12.9875 18C12.2875 18 11.7375 17.4375 11.7375 16.75C11.7375 16.0625 12.3 15.5 12.9875 15.5C13.675 15.5 14.2375 16.0625 14.2375 16.75C14.2375 17.4375 13.6875 18 12.9875 18ZM17.3625 18C16.6625 18 16.1125 17.4375 16.1125 16.75C16.1125 16.0625 16.675 15.5 17.3625 15.5C18.05 15.5 18.6125 16.0625 18.6125 16.75C18.6125 17.4375 18.05 18 17.3625 18Z" fill="#002768"></path>
                    </svg>