<svg width="50" height="50" viewBox="0 0 50 50" fill="none" xmlns="http://www.w3.org/2000/svg">
<circle cx="25" cy="25" r="24.5" fill="#D9D9D9"/>
<g opacity="0.5">
<path d="M35.125 21.525C32.8625 21.525 31.9375 19.925 33.0625 17.9625C33.7125 16.825 33.325 15.375 32.1875 14.725L30.025 13.4875C29.0375 12.9 27.7625 13.25 27.175 14.2375L27.0375 14.475C25.9125 16.4375 24.0625 16.4375 22.925 14.475L22.7875 14.2375C22.225 13.25 20.95 12.9 19.9625 13.4875L17.8 14.725C16.6625 15.375 16.275 16.8375 16.925 17.975C18.0625 19.925 17.1375 21.525 14.875 21.525C13.575 21.525 12.5 22.5875 12.5 23.9V26.1C12.5 27.4 13.5625 28.475 14.875 28.475C17.1375 28.475 18.0625 30.075 16.925 32.0375C16.275 33.175 16.6625 34.625 17.8 35.275L19.9625 36.5125C20.95 37.1 22.225 36.75 22.8125 35.7625L22.95 35.525C24.075 33.5625 25.925 33.5625 27.0625 35.525L27.2 35.7625C27.7875 36.75 29.0625 37.1 30.05 36.5125L32.2125 35.275C33.35 34.625 33.7375 33.1625 33.0875 32.0375C31.95 30.075 32.875 28.475 35.1375 28.475C36.4375 28.475 37.5125 27.4125 37.5125 26.1V23.9C37.5 22.6 36.4375 21.525 35.125 21.525ZM25 29.0625C22.7625 29.0625 20.9375 27.2375 20.9375 25C20.9375 22.7625 22.7625 20.9375 25 20.9375C27.2375 20.9375 29.0625 22.7625 29.0625 25C29.0625 27.2375 27.2375 29.0625 25 29.0625Z" fill="#666666"/>
</g>
</svg>
